<?xml version="1.0" encoding="utf-8"?>

<!DOCTYPE svg PUBLIC "-//W3C//DTD SVG 1.1//EN" "http://www.w3.org/Graphics/SVG/1.1/DTD/svg11.dtd">
<!-- Uploaded to: SVG Repo, www.svgrepo.com, Generator: SVG Repo Mixer Tools -->
<svg fill="#000000" version="1.1" id="Layer_1" xmlns="http://www.w3.org/2000/svg" xmlns:xlink="http://www.w3.org/1999/xlink" 
	 width="800px" height="800px" viewBox="0 0 72 72" enable-background="new 0 0 72 72" xml:space="preserve">
<g>
	<path d="M28.363,22.731l-0.707,0.707c-0.391,0.39-0.391,1.023-0.001,1.414c0.195,0.195,0.452,0.293,0.708,0.293
		c0.256,0,0.512-0.098,0.707-0.293l0.707-0.707c0.391-0.39,0.391-1.023,0.001-1.414C29.387,22.34,28.754,22.34,28.363,22.731z"/>
	<path d="M27.115,25.63c-0.476-0.281-1.089-0.12-1.368,0.356c-1.943,3.309-2.505,7.349-1.541,11.083
		c0.116,0.451,0.523,0.75,0.968,0.75c0.083,0,0.167-0.008,0.25-0.031c0.534-0.139,0.857-0.684,0.718-1.219
		c-0.832-3.225-0.348-6.713,1.329-9.57C27.751,26.523,27.592,25.909,27.115,25.63z"/>
	<path d="M66.596,15.61c-0.779-0.781-2.048-0.781-2.828,0L52.989,26.388l-9.192-9.192L54.575,6.417c0.78-0.781,0.78-2.047,0-2.828
		c-0.78-0.781-2.048-0.781-2.828,0L40.969,14.367L35.312,8.71c-0.75-0.75-2.078-0.75-2.828,0L22.207,18.989
		c-3.79,3.79-5.907,8.846-5.96,14.238c-0.044,4.468,1.359,8.681,3.956,12.143c-0.584,1.596-2.433,5.724-6.499,7.718
		c-7.217,3.541-8.798,13.195-8.861,13.604c-0.17,1.09,0.575,2.109,1.664,2.281c0.105,0.016,0.21,0.024,0.313,0.024
		c0.967,0,1.816-0.702,1.973-1.687c0.013-0.08,1.337-8.014,6.673-10.631c4.142-2.03,6.487-5.569,7.704-8.074
		c3.67,3.434,8.46,5.334,13.587,5.334c5.468,0,10.597-2.117,14.44-5.961l10.277-10.276c0.375-0.375,0.586-0.884,0.586-1.415
		c0-0.53-0.211-1.039-0.586-1.414l-5.657-5.658l10.778-10.777C67.377,17.657,67.377,16.391,66.596,15.61z M48.369,45.15
		c-3.09,3.088-7.213,4.789-11.612,4.789c-4.283,0-8.277-1.635-11.247-4.604l-0.658-0.657c-3.012-3.014-4.647-7.066-4.605-11.412
		c0.043-4.338,1.743-8.404,4.788-11.449l8.863-8.864l5.656,5.656c0.001,0,0.001,0,0.001,0s0,0,0.001,0l17.677,17.677L48.369,45.15z"
		/>
</g>
</svg>