<?xml version="1.0" encoding="utf-8"?>

<!DOCTYPE svg PUBLIC "-//W3C//DTD SVG 1.1//EN" "http://www.w3.org/Graphics/SVG/1.1/DTD/svg11.dtd">
<!-- Uploaded to: SVG Repo, www.svgrepo.com, Generator: SVG Repo Mixer Tools -->
<svg fill="#000000" version="1.1" id="Layer_1" xmlns="http://www.w3.org/2000/svg" xmlns:xlink="http://www.w3.org/1999/xlink" 
	 width="800px" height="800px" viewBox="0 0 72 72" enable-background="new 0 0 72 72" xml:space="preserve">
<g>
	<path d="M54.001,23.09H40.127c0.855-1.426,1.354-2.937,1.385-4.39c0.043-1.988-0.746-3.766-2.277-5.145
		c-3.352-3.018-3.754-4.44-1.955-6.919c0.648-0.895,0.449-2.145-0.444-2.794c-0.896-0.647-2.145-0.449-2.794,0.444
		c-4.377,6.034,0.28,10.226,2.518,12.241c0.67,0.602,0.973,1.265,0.955,2.087c-0.031,1.399-1.026,3.125-2.55,4.476H18.001
		c-9.374,0-17,7.774-17,17.309c0,7.258,2.389,27.998,13,27.998c5.841,0,14.075-6.306,17.402-13.306h9.195
		c3.346,7,11.584,13.449,17.402,13.449c10.611,0,13-20.909,13.001-28.224C71.001,30.826,63.375,23.09,54.001,23.09z M58,64.555
		c-4.146,0-11.794-5.904-14.232-12.156c-0.3-0.768-1.039-1.309-1.863-1.309H30.096c-0.825,0-1.564,0.532-1.864,1.301
		C25.823,58.568,18.172,64.411,14,64.411c-5.795,0-9-14.195-9-23.996c0-7.204,5.953-13.325,13-13.325h36c7.168,0,13,5.951,13,13.232
		C67,49.01,63.992,64.555,58,64.555z"/>
	<path d="M34.5,47.09h-1c-0.553,0-1,0.447-1,1s0.447,1,1,1h1c0.553,0,1-0.447,1-1S35.053,47.09,34.5,47.09z"/>
	<path d="M30.5,47.09h-3.686c-0.413,0-0.784,0.283-0.933,0.668c-1.864,4.819-8.914,12.018-11.785,12.018c-0.553,0-1,0.438-1,0.99
		c0,0.553,0.447,0.984,1,0.984c4.125,0,11.136-7.66,13.381-12.66H30.5c0.553,0,1-0.447,1-1S31.053,47.09,30.5,47.09z"/>
	<path d="M16.881,48.159c0,0.553,0.447,1,1,1c0.553,0,1-0.448,1-1V42.09H24.5c0.553,0,1-0.447,1-1s-0.447-1-1-1h-5.619v-5.931
		c0-0.553-0.447-1-1-1c-0.553,0-1,0.447-1,1v5.931H10.5c-0.553,0-1,0.447-1,1s0.447,1,1,1h6.381V48.159z"/>
	<path d="M54.691,41.25c0.916,0,1.776-0.357,2.425-1.004c0.647-0.646,1.004-1.508,1.004-2.424s-0.356-1.776-1.005-2.424
		c-1.293-1.295-3.553-1.295-4.846,0c-0.648,0.648-1.004,1.508-1.004,2.424s0.356,1.777,1.002,2.422
		C52.916,40.893,53.775,41.25,54.691,41.25z M53.684,36.813c0.27-0.271,0.627-0.417,1.008-0.417c0.382,0,0.74,0.147,1.01,0.417
		c0.271,0.272,0.419,0.629,0.419,1.01c0,0.382-0.147,0.74-0.418,1.011c-0.541,0.541-1.479,0.541-2.019,0
		c-0.271-0.271-0.418-0.629-0.418-1.011C53.266,37.441,53.413,37.083,53.684,36.813z"/>
	<path d="M62.6,40.883c-1.295-1.295-3.555-1.295-4.848,0c-0.648,0.646-1.004,1.506-1.004,2.422s0.357,1.777,1.003,2.422
		c0.647,0.649,1.509,1.006,2.425,1.006c0.915,0,1.775-0.355,2.424-1.004C63.936,44.391,63.936,42.217,62.6,40.883z M61.186,44.314
		c-0.541,0.539-1.479,0.539-2.02,0c-0.27-0.27-0.418-0.629-0.418-1.01s0.148-0.738,0.418-1.008s0.628-0.418,1.009-0.418
		c0.382,0,0.74,0.148,1.011,0.418C61.742,42.854,61.742,43.758,61.186,44.314z"/>
	<path d="M52.639,43.305c0-0.916-0.359-1.777-1.006-2.422c-1.293-1.295-3.553-1.295-4.846,0c-0.648,0.646-1.004,1.506-1.004,2.422
		c-0.001,0.916,0.355,1.775,1.003,2.424c0.647,0.649,1.508,1.004,2.424,1.004s1.776-0.355,2.424-1.004
		C52.283,45.082,52.639,44.221,52.639,43.305z M50.221,44.314c-0.541,0.539-1.479,0.541-2.021,0c-0.271-0.27-0.417-0.629-0.417-1.01
		s0.148-0.738,0.418-1.008s0.628-0.418,1.009-0.418s0.739,0.148,1.011,0.418c0.27,0.27,0.418,0.627,0.418,1.008
		S50.49,44.045,50.221,44.314z"/>
	<path d="M52.27,46.365c-0.648,0.646-1.004,1.506-1.004,2.422s0.356,1.777,1.004,2.424c0.646,0.648,1.506,1.004,2.422,1.004
		s1.777-0.355,2.425-1.004c0.649-0.646,1.005-1.508,1.004-2.424c0-0.916-0.358-1.777-1.005-2.422
		C55.822,45.07,53.563,45.07,52.27,46.365z M55.702,49.798c-0.539,0.539-1.479,0.541-2.019,0c-0.271-0.271-0.418-0.627-0.418-1.01
		c0-0.382,0.147-0.738,0.418-1.009c0.27-0.27,0.627-0.418,1.008-0.418c0.382,0,0.74,0.148,1.011,0.418
		c0.271,0.271,0.418,0.627,0.418,1.009C56.12,49.169,55.973,49.527,55.702,49.798z"/>
</g>
</svg>